<?xml version="1.0" encoding="utf-8"?>
<!-- Generator: Adobe Illustrator 27.1.0, SVG Export Plug-In . SVG Version: 6.00 Build 0)  -->
<svg version="1.1" id="Layer_1" xmlns="http://www.w3.org/2000/svg" xmlns:xlink="http://www.w3.org/1999/xlink" x="0px" y="0px"
	 viewBox="0 0 612 792" style="enable-background:new 0 0 612 792;" xml:space="preserve">
<style type="text/css">
	.st0{fill:#3A5A5E;}
	.st1{fill:#A59F94;}
	.st2{fill:#F1F2F2;}
	.st3{fill:#D9D4CE;}
	.st4{fill:#3D3D3D;}
	.st5{fill:none;}
</style>
<path class="st0" d="M405.29,436.68c-2.98,4.2-13.74,14.85-13.61,19.94c0.13,5.13,9.08,7.37,12.97,9.75
	c4.49,2.75,14.21,7.8,5.82,10.68c-8.59,2.94-23.07-0.03-32.33-0.04c-42.53-0.01-85.2,0.96-127.72-0.09
	c-3.9-0.1-19.91,0.86-19.53-4.75c0.31-4.65,16.38-7.12,19.93-8.06c8.95-2.37,18.08-4.76,27.33-5.54c10.72-0.9,21.36,0.83,32.06-0.75
	c9.67-1.43,18.95-4.53,28.64-5.84c11.42-1.54,14.03-3.73,19.94-13.75c9.96-16.89,16.88-35.41,20.96-54.58
	c1.39-6.51,6.6-18.42-2.46-13.46c-3.97,2.17-7.82,6.57-11.04,9.72c-2.26,2.22-6.41,9.31-9.12,10.32
	c-7.11,2.64-2.33-11.57-0.49-15.92c1.74-4.12,4.27-7.89,7.44-11.04c2.27-2.27,6.77-4.09,8.27-6.81c-6.95-1.52-14.28-1.65-21.35-1.14
	c-6.16,0.44-9.73,2.01-6.61-3.96c5.71-10.94,23.61-11.12,33.43-8.47c-1.48-1.6-12.89-8.77-12.41-11c1.26-5.89,16.65,2.31,18.3,2.91
	c0.71,0.26,1.23,0.52,1.64,0.77c0.42,0.25,0.71,0.44,0.83,0.51c2.05,1.35,4.16,1.09,4.16,1.09c0.05-0.01,0.13-0.02,0.24-0.03
	c0.37-0.06,1.8-0.29,2.73-1.37c0.23-0.27,0.44-0.68,0.85-1.49c0.27-0.53,0.39-0.85,0.53-1.15c0.26-0.58,0.68-1.39,1.38-2.35
	c0.28-0.82,0.67-1.72,1.19-2.65c0.66-1.19,2.97-5.69,4.64-5.33c0.68,0.14,1.03,1.04,1.16,1.39c1.64,4.27-5.41,12.85-6.96,14.69
	c3.95-2.21,16.26-5.32,19.6-0.18c3.41,5.26-7.71,5.75-11.5,7.91c9.1,2.26,25.95,7.88,26.8,19.9c0.42,5.87-2.75,3.32-7.31,1.42
	c-4.57-1.91-16.05-8.23-20.91-5.5c5.22,6.42,8.58,14.95,8.83,23.28c0.06,2,0.01,12.32-2.04,13.84c-2.76,2.04-0.61,1.68-3.26-0.08
	c-2.11-1.4-3.91-9.45-4.92-11.63c-1.77-3.82-3.7-7.55-5.74-11.24c-6.91-12.45-6.28-1.4-7.36,6.84c-2.65,20.2-7.9,40.06-14.11,59.44
	c-2.21,6.89-2.49,15.06,8.6,11.36c7.91-2.64,15.3-14.56,19.07-21.25c-2.59,0.43-14.58,6.53-15.4,3.88
	c-1.43-4.68,9.19-9.8,12.2-10.65c-1.11-1.23-10.32-4.45-10.11-5.96c0.64-4.54,11.27-2.41,13.72-1.42c0.22-0.15,0.53-0.39,0.81-0.76
	c1.78-2.34-0.47-6.12,0.43-6.69c0.6-0.38,2.19,0.91,3.25,2.09c2.72,3.02,2.04,5.73,3.72,6.31c1.1,0.38,1.67-0.67,5.49-2.18
	c2.11-0.83,3.93-1.55,4.34-1.02c0.63,0.81-2.93,3.34-4.09,8.43c-0.29,1.28-0.52,2.4-0.19,3.77c0.63,2.62,2.71,3.3,4.27,5.42
	c1.07,1.44,2.15,3.89,1.77,8.16c-1.17-1.19-2.34-2.38-3.52-3.58c-0.65-0.66-1.31-1.33-2.14-1.73c-5.75-2.76-3.82,10.21-6.4,12.24
	c-0.21,0.17-1.67,1.56-2.9,1.16C404.69,449.69,404.79,442.7,405.29,436.68z"/>
<path class="st0" d="M333.43,492.82c-26.72,21.59-68.29,21.28-98.06,6.73c-34.41-16.82-55.37-53.48-54.4-91.48
	c1.89-74.02,91.56-125.02,153.47-78.58c-49.23-21.08-100.4-8.88-127.5,39.55c-28.33,50.62,3.47,116.13,57.84,131.04
	C288.47,506.58,311.39,503.64,333.43,492.82z"/>
<path class="st0" d="M262.06,431.66c-2.09-15.93,2.34-23.49,5.52-27.09c2.14-2.43,3.26-2.22,14.19-10.16
	c3.54-2.57,10.48-10.09,15.09-10.09c7.41,0,21.38,14.12,26.91,18.47c9.72,7.64,6.69,16.51,6.75,28.41
	c0.05,11.29,3.54,18.41-8.44,21.54c-4.35,1.14-11.18,3.24-31.68,3.37c0,0-6.26,0.04-17.11-1.13c-4.9-0.53-6.04-0.83-7.15-1.53
	C259.58,449.29,261.4,435.76,262.06,431.66z"/>
<path class="st0" d="M255.76,432.11c0,5.42,3.88,30.42-5.58,29.59c-7.3-0.64-3.82-19.57-3.82-24.52c0-5.27,3.41-24.74-0.83-28.93
	c-1.57-1.56-6.53-0.01-7.05-2.09c-0.52-2.08,4.46-4.45,5.68-5.35c10.73-7.84,21.53-15.6,32.29-23.4c7.49-5.42,15.32-14.83,24.6-11.8
	c8.91,2.9,19.6,14.33,27.4,19.97c3.96,2.86,26.16,15.01,26.35,19.42c0.02,0.37,0.17,1.43-0.43,1.92c-1.19,0.97-3.78-1.57-5.33-0.62
	c-0.66,0.4-0.79,1.24-1.08,4.16c-0.35,3.52-0.51,5.28-0.52,5.84c-0.1,7.36,3.45,24.17-0.21,30.02c-4.36,6.96-7.77,1.67-9.1-2.34
	c-3.52-10.6,2.36-24.38-0.08-35.33c-2.11-9.49-15.27-15.3-22.74-20.74c-3.72-2.71-7.36-5.69-11.23-8.19
	c-7.03-4.55-7.55-4.37-14.56,0.19c-13.37,8.69-20.27,9.58-27.79,20.5C254.14,411.47,254.68,424.64,255.76,432.11z"/>
<path class="st0" d="M243.5,372.65c-2.44-4.51-4.54-8.15-8.98-9.59c-1.97-0.64-1.88-1.98-0.18-2.8c3.35-1.62,6.29-3.46,7.53-7.3
	c0.34-1.04,1.9-2.28,2.61-0.35c1.64,4.47,5.06,6.9,10.77,9.18C248.67,363.54,246.68,368.25,243.5,372.65z"/>
<path class="st0" d="M271.93,340.79c-0.85-1.57-1.58-2.84-3.13-3.34c-0.68-0.22-0.65-0.69-0.06-0.98c1.17-0.56,2.19-1.2,2.62-2.54
	c0.12-0.36,0.66-0.8,0.91-0.12c0.57,1.56,1.76,2.4,3.75,3.2C273.72,337.62,273.03,339.26,271.93,340.79z"/>
<path class="st0" d="M255.51,346.77c-1.33-2.46-2.47-4.44-4.89-5.22c-1.07-0.35-1.02-1.08-0.1-1.53c1.82-0.88,3.43-1.88,4.1-3.98
	c0.18-0.57,1.03-1.24,1.42-0.19c0.89,2.43,2.76,3.76,5.87,5C258.32,341.81,257.24,344.38,255.51,346.77z"/>
<path class="st0" d="M219.48,383.49c-1.15-2.12-2.14-3.83-4.22-4.51c-0.93-0.3-0.88-0.93-0.08-1.32c1.58-0.76,2.96-1.63,3.54-3.43
	c0.16-0.49,0.89-1.07,1.23-0.17c0.77,2.1,2.38,3.25,5.07,4.32C221.91,379.21,220.97,381.42,219.48,383.49z"/>
<path class="st0" d="M209.14,398.97c-0.77-1.42-1.43-2.57-2.83-3.03c-0.62-0.2-0.59-0.62-0.06-0.88c1.06-0.51,1.99-1.09,2.38-2.3
	c0.11-0.33,0.6-0.72,0.82-0.11c0.52,1.41,1.6,2.18,3.4,2.9C210.77,396.09,210.14,397.58,209.14,398.97z"/>
<g>
	<g>
		<path class="st1" d="M243.14,587.98v0.03h-18.33v-0.13h-33.56l-1.33-0.13c-2.22-0.62-3.33-2-3.33-4.13v-33.99
			c0-0.76,0.13-1.29,0.4-1.6c0.82-1.51,1.89-2.27,3.2-2.27h21.46l0.07-8.6c-0.2-1.6,0.68-2.4,2.63-2.4h15
			c1.89,0,2.83,0.81,2.83,2.43v40.69h11v10.1H243.14z M197.45,510.63c4.44,0,7.78,2.4,10,7.2l0.53,2.93v1.2
			c0,3.2-1.69,6.04-5.07,8.53c-1.42,0.98-3.29,1.47-5.6,1.47c-4.24,0-7.35-1.82-9.33-5.47c-0.89-1.42-1.33-2.8-1.33-4.13v-2
			c0-2.27,1.11-4.53,3.33-6.8C192.02,511.61,194.51,510.63,197.45,510.63z M209.38,578.48c1.18,0,1.93-0.67,2.27-2v-21.8
			c0-0.89-0.62-1.51-1.87-1.87h-0.67c-1.18,0-1.89,0.76-2.13,2.27v21.13C207.33,577.73,208.13,578.48,209.38,578.48z M221.58,510.63
			c4.04,0,7.24,2.04,9.6,6.13c0.62,1.33,0.93,2.89,0.93,4.67c0,4.18-2,7.38-6,9.6c-1.09,0.62-2.64,0.93-4.67,0.93
			c-4.07,0-7.13-1.73-9.2-5.2c-0.98-1.53-1.47-3.35-1.47-5.47c0-4.04,1.91-7.2,5.73-9.47C218.02,511.03,219.71,510.63,221.58,510.63
			z"/>
		<path class="st1" d="M314.86,584.65l0.27,0.27v2.8l-0.27,0.27h-81.25v-10.1h46.73v-10.43h-25.06c-2-0.18-4.09-1.33-6.27-3.47
			c-1.78-2.2-2.67-4.38-2.67-6.53v-11.2l0.27-0.27h47.86c5.15,0,7.73,2.4,7.73,7.2v24.7h12.67V584.65z"/>
		<path class="st1" d="M362.05,577.88h9.46v10.1h-0.2v0.03h-34.33c0,0.04,0.01,0.08,0.03,0.1h-20.56v-0.1h-9.2v-3.43h0.1v-6.7h9.1
			v-28.53c0-1.62,1.07-2.82,3.2-3.6h37.73c2.18,0,3.64,0.89,4.4,2.67l0.27,0.93V577.88z M336.99,555.29v21.33
			c0,1.13,0.71,1.8,2.13,2h0.27c1.27,0,2.02-0.8,2.27-2.4v-20.53c0-1.4-0.8-2.24-2.4-2.53
			C337.99,553.15,337.24,553.87,336.99,555.29z"/>
		<path class="st1" d="M369.42,587.98v-10.1h20.63v10.1H369.42z"/>
		<path class="st1" d="M386.72,587.98v-10.1h5.9c3.58,0,5.37-1.77,5.37-5.3v-53.09c0-0.75,0.13-1.29,0.4-1.6
			c0.91-1.42,1.98-2.13,3.2-2.13h14.26c1.64,0,2.84,1.07,3.6,3.2v65.69c-0.53,2.22-1.87,3.33-4,3.33H386.72z"/>
	</g>
</g>
<rect x="278.02" y="425.28" class="st2" width="12.12" height="12.12"/>
<rect x="301.39" y="404.07" class="st2" width="12.12" height="12.12"/>
<rect x="299.48" y="425.28" class="st2" width="12.12" height="12.12"/>
<rect x="278.02" y="404.07" class="st2" width="12.12" height="12.12"/>
<path class="st3" d="M433.3,392.4"/>
<g>
	<path class="st4" d="M253.44,529.4h0.57c0.36,0,0.66,0.12,0.92,0.38c0.26,0.26,0.38,0.56,0.38,0.92v9.21h1.33
		c0.36,0,0.66,0.12,0.92,0.38s0.38,0.56,0.38,0.92v0.57h-3.52c-0.27,0-0.5-0.1-0.69-0.29c-0.19-0.19-0.29-0.42-0.29-0.69V529.4z"/>
	<path class="st4" d="M264.36,529.4l2.77,12.39h-0.82c-0.31,0-0.57-0.1-0.81-0.29c-0.24-0.19-0.39-0.43-0.46-0.74l-0.27-1.22h-2.88
		l-0.26,1.22c-0.07,0.31-0.22,0.56-0.46,0.74c-0.24,0.19-0.5,0.29-0.81,0.29h-0.82l2.77-12.39H264.36z M264.39,537.67l-1.05-4.93
		l-1.05,4.93H264.39z"/>
	<path class="st4" d="M278.18,529.4v12.39h-0.57c-0.36,0-0.66-0.12-0.92-0.38s-0.38-0.56-0.38-0.92v-7.05l-1.78,8.35h-2.04
		l-1.88-8.37v7.07c0,0.36-0.12,0.66-0.38,0.92c-0.26,0.26-0.56,0.38-0.92,0.38h-0.57V529.4h1.13c0.37,0,0.71,0.12,1,0.34
		c0.29,0.23,0.49,0.53,0.58,0.9l2.05,8.23l1.94-8.22c0.1-0.38,0.29-0.68,0.58-0.91s0.62-0.34,1-0.34H278.18z"/>
	<path class="st4" d="M281.65,536.91v3.58c0,0.36-0.12,0.66-0.38,0.92c-0.26,0.26-0.56,0.38-0.92,0.38h-0.57V529.4h0.57
		c0.36,0,0.66,0.12,0.92,0.38c0.26,0.26,0.38,0.56,0.38,0.92v4.33h2.25v-4.33c0-0.36,0.13-0.66,0.39-0.92
		c0.26-0.26,0.56-0.38,0.92-0.38h0.57v12.39h-0.57c-0.36,0-0.66-0.12-0.92-0.38c-0.26-0.26-0.39-0.56-0.39-0.92v-3.58H281.65z"/>
	<path class="st4" d="M292.2,529.4l2.77,12.39h-0.82c-0.31,0-0.57-0.1-0.81-0.29c-0.24-0.19-0.39-0.43-0.46-0.74l-0.27-1.22h-2.88
		l-0.26,1.22c-0.07,0.31-0.22,0.56-0.46,0.74c-0.24,0.19-0.5,0.29-0.81,0.29h-0.82l2.77-12.39H292.2z M292.23,537.67l-1.05-4.93
		l-1.05,4.93H292.23z"/>
</g>
<rect x="575" y="596.83" class="st5" width="3.06" height="0"/>
</svg>
